# xmcd
#
# Track frame offsets:
#	150
#	17909
#	36131
#	54803
#	74488
#	93789
#	116456
#	132597
#	146536
#	163132
#	181781
#	200123
#	212371
#
# Disc length: 3066 seconds
#
# Revision: 0
# Processed by: cddbd v1.5.2PL0 Copyright (c) Steve Scherf et al.
# Submitted via: dBpowerAMP V4.0
#
DISCID=b50bf80d
DTITLE=Jesus Adrian Romero - Ayer Te Vi...Fue Mas Claro que la Luna
DYEAR=1900
DGENRE=
TTITLE0=Ayer Te Vi
TTITLE1=Solo Pienso En Ti
TTITLE2=Mi Entorno
TTITLE3=Razones Pa' Vivir
TTITLE4=Vuelve A Llamar
TTITLE5=Como La Brisa
TTITLE6=Se Desbartan Mis Sueños
TTITLE7=Cuenta Conmigo
TTITLE8=Mi Dia
TTITLE9=No Hay Paredes
TTITLE10=Tienen Tu color
TTITLE11=Mas Que un Concepto
TTITLE12=Si Hubiera Estado Alli
EXTD=
EXTT0=
EXTT1=
EXTT2=
EXTT3=
EXTT4=
EXTT5=
EXTT6=
EXTT7=
EXTT8=
EXTT9=
EXTT10=
EXTT11=
EXTT12=
PLAYORDER=
